<svg xmlns="http://www.w3.org/2000/svg" viewBox="0 0 1259.38161 1260.50976"><defs><style>.cls-1{fill:#e8e7e7;}.cls-2{fill:#289d85;}.cls-3{fill:#47b549;}.cls-4{fill:#5fc2aa;}.cls-5{fill:#3e71b7;}.cls-6{fill:#f58720;}.cls-7{fill:#2eaae1;}.cls-8{fill:#f9c014;}.cls-9{fill:#83c341;}</style></defs><g id="Layer_2" data-name="Layer 2"><g id="Layer_1-2" data-name="Layer 1"><path class="cls-1" d="M368.38464,896.88362c-28.5498-32.79252-67.77341-53.16386-109.75095-61.2491-12.79072-2.46351-19.96124-6.60963-23.35306-19.77786C216.21036,741.81927,196.46,667.95692,176.85342,594.05811c-5.87141-22.12978-14.696-43.82192-13.44372-67.16062,1.28427-23.93549,9.03361-45.72444,26.46692-63.15925q135.753-135.76513,271.58045-271.45559c26.43567-26.33754,59.01381-33.25278,94.25842-24.30877,64.84283,16.45515,129.3437,34.25825,193.98265,51.51633,21.05476,5.62143,42.06046,11.43055,63.1604,16.87582,8.04246,2.0755,11.01676,6.493,12.92586,14.94073,18.29879,80.97009,67.72961,133.58692,146.88983,158.205,8.70527,2.70725,18.01162,5.8782,26.81078,5.30837,12.23335-.79225,13.86606,6.76335,16.05381,14.92949q18.99415,70.90119,37.84768,141.84012c11.02844,41.37354,22.30351,82.68345,33.00248,124.142,10.2961,39.89773,1.54438,74.39256-28.33565,104.02046-85.702,84.97917-171.38877,169.9898-255.86927,256.17633-34.07036,34.75842-72.49413,42.17965-117.59814,29.67627-61.15705-16.95328-122.52067-33.16232-183.80973-49.6384-23.25676-6.25215-46.50747-12.53815-69.85862-18.42114-6.86275-1.729-8.71491-5.676-9.56276-12.21748-5.072-39.131-22.40064-72.81757-47.06615-103.05655a37.61247,37.61247,0,0,0-5.904-5.38762"/><path class="cls-2" d="M1259.23856,762.37332c-.44033,36.90943-12.97211,69.23593-38.84228,95.56015-44.692,45.47686-90.128,90.22173-134.98749,135.53537-5.282,5.33532-8.276,5.65733-13.55678.09579q-31.32908-32.99508-63.54238-65.143c-5.40748-5.379-5.24278-8.31779.08531-13.5657,31.74409-31.26666,63.04539-62.98209,94.66314-94.37776,33.49468-33.25931,43.96181-72.43581,31.67208-118.042-24.42292-90.63129-48.42319-181.37668-73.04122-271.95451-2.83283-10.423-2.91863-14.53738,9.94178-16.68255,29.86757-4.98207,57.00606-17.69467,81.17356-36.16346,5.22-3.98905,7.51761-4.895,9.59873,2.94755q46.43273,174.96714,93.31887,349.81383A101.75319,101.75319,0,0,1,1259.23856,762.37332Z"/><path class="cls-2" d="M862.20044,93.08642c-20.8505,30.91-33.27685,63.08791-36.88524,98.556-.75374,7.40927-6.12906,3.5222-9.6411,2.597Q765.08917,180.914,714.56686,167.351c-54.053-14.43216-108.049-29.08066-162.16793-43.26052C510.589,113.1358,473.949,123.7178,443.29738,153.48427c-34.725,33.72226-68.70144,68.22045-102.69916,102.68135-5.36529,5.43837-8.0589,6.63067-13.81492.04515-20.208-23.12021-41.10552-45.64367-62.00912-68.14491-4.311-4.64044-4.37229-7.41354.27055-12.01441C311.165,130.34807,356.36159,83.68967,403.21532,38.75691,438.60911,4.81424,482.07423-7.6615,529.76078,4.62221,640.32313,33.10225,750.4587,63.23867,862.20044,93.08642Z"/><path class="cls-2" d="M384.99029,1163.52676c19.52907-26.61,32.16629-55.09048,38.2413-86.45582,3.05355-15.76569,3.26435-15.71839,18.58265-11.623,89.23534,23.85662,178.32675,48.27252,267.77484,71.30318,38.698,9.96379,74.25141.76494,103.43379-26.96063,29.52065-28.047,58.04705-57.15309,86.58506-86.21152,5.86139-5.96829,8.99251-6.73407,15.10827-.1861,20.70593,22.16924,41.99788,43.79884,63.382,65.32068,4.5298,4.559,4.82274,7.21563.108,11.88548-41.2252,40.83313-81.40034,82.76425-123.5228,122.64177-34.72156,32.87121-77.86367,44.56609-123.89359,32.81589-114.00164-29.10172-227.414-60.51246-341.061-91.00327C388.622,1164.75652,387.54355,1164.3535,384.99029,1163.52676Z"/><path class="cls-2" d="M0,495.73925c.88694-33.75066,12.94931-66.60546,39.2037-93.29265C78.79935,362.19815,118.99461,322.54012,158.734,282.432c4.32125-4.36137,6.697-5.51134,11.36041-.24342,20.60038,23.27046,41.34166,46.43472,62.7155,68.98969,5.82164,6.14337,3.75953,8.9903-.95429,13.6492-25.40561,25.10974-50.54941,50.48413-75.84818,75.70233q-49.62477,49.467-31.38548,117.06493Q160.017,689.107,195.36941,820.63067C199.00926,834.1611,199.05,834.2678,185.1,836.59759a195.57857,195.57857,0,0,0-81.18319,33.40859c-6.14131,4.31855-8.03839,4.45454-10.17862-3.627Q49.16385,698.06559,3.95905,529.91894C1.2748,519.87157.06744,509.59194,0,495.73925Z"/><path class="cls-3" d="M804.20763,850.41258c-80.97269,28.12436-164.38455,36.30989-249.60824,31.77652-42.94873-2.28453-86.04732-4.12627-128.95812,1.05781-14.30769,1.72849-29.21839,3.09718-39.28109,15.85592q-1.10278-1.03128-2.20577-2.06254c.66833-19.3785,12.13218-31.73021,27.42985-41.23354,19.59959-12.176,41.79788-17.01684,64.07733-20.94885,79.64379-14.05606,159.39183-27.52363,239.0161-41.68759,29.39832-5.22961,58.42768-12.348,87.20669-20.38542,2.58346,2.14334,3.03286,5.22743,3.60537,8.24395,3.83291,20.195,2.08837,40.57672,1.97632,60.90034C807.44868,845.08492,806.015,847.86045,804.20763,850.41258Z"/><path class="cls-4" d="M398.02361,1016.90673c-1.76247-11.872-2.87588-24.442-10.60408-34.71786l-.00071-.00262c-19.09939-52.72-55.77275-87.39719-108.45588-105.63783-9.862-2.51839-19.5885-6.02714-29.60731-7.39618-69.66065-9.51851-127.62309,12.7914-170.11795,68.59032-38.90827,51.08965-46.78309,108.46826-24.50555,169.31586l-.00143.00119c19.11962,52.83141,55.719,87.80966,108.51419,106.24666,25.85031,9.787,52.26661,12.49888,79.8694,9.19339C342.08164,1210.64769,413.10466,1118.496,398.02361,1016.90673Z"/><path class="cls-4" d="M1203.9438,156.6471l.00024-.00072c-7.087-18.01191-15.07558-35.53353-27.13962-50.90186-20.93444-26.66835-46.43964-47.038-79.07515-57.64017-31.76392-13.83507-65.01255-15.00109-98.05316-8.0676C889.81526,63.0902,828.56019,177.67746,869.91236,281.19272l.00071-.00048-.00024.00048c2.715,5.90527,5.10794,11.98453,8.19589,17.68774,22.14021,40.889,54.978,69.23414,99.21917,84.08313,17.71607,8.28372,36.85329,10.47817,55.87985,10.80782,84.38945,1.46186,158.89385-58.05122,176.84079-141.29775C1217.00748,220.19493,1216.56811,187.91238,1203.9438,156.6471Z"/><path class="cls-5" d="M790.26394,682.18035c-54.36286,22.45034-111.31388,33.57737-169.54548,39.87147-65.23057,7.05058-130.45769,3.57994-195.72089,1.839-26.10525-.69645-52.234-1.5626-78.26958,1.66388-23.34351,2.89286-44.77739,10.11715-61.83269,27.70621-6.26163-24.98129,7.80624-58.09905,32.61487-77.58968,24.62158-19.34366,53.43885-28.82158,83.857-32.05207,46.54485-4.94294,93.34269-7.4508,139.95194-11.85262,74.16692-7.00455,147.67619-17.86876,218.8875-40.87036a43.85145,43.85145,0,0,1,4.49453-.96349c3.43046,1.697,4.58286,5.02979,5.74019,8.261a577.57348,577.57348,0,0,1,20.56945,73.00288C791.78881,674.79916,793.23007,678.71379,790.26394,682.18035Z"/><path class="cls-6" d="M714.60139,491.57575C667.71447,514.832,617.8123,527.307,566.00077,532.565c-59.52808,6.04114-118.86389,1.08592-178.19556-3.75a359.66738,359.66738,0,0,0-58.712-.39436c-21.44779,1.76756-41.50557,7.6605-54.90809,27.17625-7.32869-22.0146,4.21618-52.33487,25.48988-69.70588,21.97408-17.94295,48.84634-23.05682,75.30331-29.15884,51.71077-11.92658,104.41861-16.58675,157.14319-21.11671,42.007-3.60905,83.94421-7.783,124.46993-20.46488,9.20761,2.80277,12.808,11.48729,18.4737,17.90565a407.47662,407.47662,0,0,1,35.28716,46.19738C712.75275,482.91347,716.47312,486.34681,714.60139,491.57575Z"/><path class="cls-7" d="M790.26394,682.18035c-6.09944-31.41968-15.5916-61.89952-25.55957-92.248,24.754-10.88772,50.4535-19.57748,73.63612-34.06657,30.85013-19.28131,56.093-42.93547,64.76712-79.77585,8.1025-34.41262-3.28546-65.6305-17.61908-96.12231-1.42958-3.04126-3.07847-5.97944-5.02347-9.73342,11.22735,7.40212,28.64915,30.91429,39.88776,53.88548,29.41725,60.12784,27.19121,118.30966-12.70859,173.06885C877.87787,638.04036,836.69455,663.93045,790.26394,682.18035Z"/><path class="cls-8" d="M714.60139,491.57575c-16.04037-27.97673-37.47717-51.85746-58.00932-76.42524,23.57662-9.96509,46.713-20.46946,66.83938-36.95757,34.4315-28.2071,33.92509-66.39646-1.66184-93.70852-8.47483-6.50425-18.14937-10.7702-26.84211-16.749,43.95943,11.14432,83.67974,29.43692,108.66947,69.786,16.43586,26.53765,16.91109,54.25365.39056,81.35456C782.80651,453.62221,751.24993,475.76706,714.60139,491.57575Z"/><path class="cls-9" d="M804.20763,850.41258c-.14936-25.8946.90457-51.82523-2.32318-77.62769,23.66531-9.462,47.82437-17.77459,69.95051-30.76728,49.65063-29.15507,85.58786-68.77126,97.17008-127.00848a209.489,209.489,0,0,0,4.52332-37.76825c4.05646,8.15745,5.15516,16.98953,5.99027,25.93155C990.24505,718.03654,907.46138,816.00369,804.20763,850.41258Z"/><path class="cls-6" d="M589.76282,357.15164c-30.87361,10.03762-62.33781,11.42218-94.157,5.99254-21.49772-3.66835-42.8269-8.39527-64.386-11.61288-20.89625-3.11872-41.91856-3.57618-62.71356,3.04,38.19146-31.961,82.54947-48.16761,131.494-53.061,6.48246-1.67961,12.09037,1.02733,17.43919,3.93092A533.3948,533.3948,0,0,1,583.288,347.33007C586.513,349.74942,590.74264,351.8217,589.76282,357.15164Z"/><path class="cls-8" d="M589.76282,357.15164c-16.75283-16.4792-37.292-27.55724-57.05449-39.68769-10.34814-6.35185-20.39226-13.56978-32.71708-15.95133,13.09356-2.98689,26.45214-3.53627,39.76769-4.00067a74.29409,74.29409,0,0,0,23.32331-5.00114c4.82811-1.78174,9.82156-4.75184,9.74931-10.14714-.08147-6.08509-5.66776-8.52536-10.95932-10.14857a62.44374,62.44374,0,0,0-6.57664-1.17737c31.52382-10.33633,65.1661-.193,77.87244,19.54223,10.06009,15.62524,10.0722,30.2449-2.10808,44.16726A66.89655,66.89655,0,0,1,589.76282,357.15164Z"/><path class="cls-3" d="M799.599,919.43039c-81.555,39.38856-166.61094,56.3517-256.87762,40.33629C632.68752,949.68908,718.444,924.232,801.87544,890.0976,806.93417,900.32666,803.36294,909.886,799.599,919.43039Z"/><path class="cls-9" d="M799.599,919.43039c-1.45681-9.94978,2.67067-19.466,2.27686-29.333,16.236-8.36212,32.63065-16.43525,48.64864-25.197,9.382-5.13191,18.28274-11.18375,27.18157-17.14768,8.94753-5.99665,16.787-13.36918,25.02668-20.27724C879.79922,870.79751,841.83711,897.48019,799.599,919.43039Z"/></g></g></svg>