<svg xmlns="http://www.w3.org/2000/svg" viewBox="0 0 1749.11218 1749.11218"><defs><style>.cls-1{fill:#e8e7e7;}.cls-2{fill:#289d85;}.cls-3{fill:#47b549;}.cls-4{fill:#5fc2aa;}.cls-5{fill:#3e71b7;}.cls-6{fill:#f58720;}.cls-7{fill:#2eaae1;}.cls-8{fill:#f9c014;}.cls-9{fill:#83c341;}.cls-10{fill:none;}</style></defs><g id="Layer_2" data-name="Layer 2"><g id="Layer_1-2" data-name="Layer 1"><g id="_Group_COLOR" data-name="&lt;Group&gt; COLOR"><path class="cls-1" d="M616.03446,1143.66687c-28.5498-32.79252-67.7734-53.16386-109.75095-61.2491-12.79072-2.46351-19.96124-6.60963-23.35306-19.77786-19.07027-74.03739-38.82067-147.89974-58.42721-221.79855-5.87141-22.12978-14.696-43.82192-13.44372-67.16062,1.28427-23.93549,9.03361-45.72444,26.46692-63.15925q135.753-135.76513,271.58045-271.45559c26.43567-26.33754,59.01381-33.25278,94.25842-24.30877,64.84283,16.45515,129.3437,34.25825,193.98265,51.51633,21.05476,5.62143,42.06046,11.43055,63.1604,16.87582,8.04246,2.0755,11.01676,6.493,12.92586,14.94073,18.29879,80.97009,67.72961,133.58692,146.88983,158.205,8.70527,2.70725,18.01162,5.87819,26.81078,5.30837,12.23335-.79225,13.86606,6.76334,16.05381,14.92948q18.99415,70.90121,37.84768,141.84013c11.02844,41.37354,22.30351,82.68345,33.00248,124.142,10.2961,39.89773,1.54438,74.39255-28.33565,104.02046-85.702,84.97917-171.38877,169.9898-255.86927,256.17633-34.07036,34.75842-72.49413,42.17965-117.59814,29.67626-61.157-16.95328-122.52067-33.16231-183.80973-49.63839-23.25676-6.25215-46.50747-12.53815-69.85862-18.42114-6.86275-1.729-8.71491-5.67605-9.56276-12.21748-5.072-39.131-22.40064-72.81757-47.06615-103.05655a37.61247,37.61247,0,0,0-5.904-5.38762"/><path class="cls-2" d="M1506.88838,1009.15657c-.44033,36.90943-12.97211,69.23593-38.84228,95.56015-44.69205,45.47686-90.128,90.22173-134.98749,135.53537-5.282,5.33532-8.276,5.65733-13.55678.09579q-31.32907-32.99508-63.54238-65.143c-5.40748-5.379-5.24278-8.31779.08531-13.5657,31.74409-31.26666,63.04539-62.98209,94.66314-94.37776,33.49468-33.25931,43.96181-72.43581,31.67208-118.042-24.42292-90.6313-48.42319-181.37668-73.04122-271.95451-2.83283-10.423-2.91863-14.53738,9.94178-16.68255,29.86757-4.98207,57.00606-17.69467,81.17356-36.16346,5.22-3.989,7.51761-4.895,9.59873,2.94755q46.43273,174.96714,93.31887,349.81383A101.75319,101.75319,0,0,1,1506.88838,1009.15657Z"/><path class="cls-2" d="M1109.85026,339.86967c-20.8505,30.91-33.27685,63.08791-36.88524,98.556-.75374,7.40927-6.12906,3.5222-9.6411,2.59705q-50.58494-13.32545-101.10724-26.88842c-54.053-14.43215-108.049-29.08065-162.16793-43.26051-41.81-10.95473-78.44994-.37273-109.10155,29.39374-34.725,33.72225-68.70144,68.22044-102.69916,102.68135-5.36529,5.43837-8.0589,6.63067-13.81492.04515-20.208-23.12021-41.10552-45.64367-62.00912-68.14491-4.311-4.64044-4.37229-7.41354.27055-12.01441,46.12026-45.70338,91.31686-92.36178,138.17059-137.29454,35.39379-33.94267,78.85891-46.41841,126.54546-34.1347C887.973,279.8855,998.10852,310.02192,1109.85026,339.86967Z"/><path class="cls-2" d="M632.64011,1410.31c19.52907-26.61,32.16629-55.09048,38.2413-86.45582,3.05355-15.76569,3.26435-15.71839,18.58265-11.623,89.23534,23.85662,178.32675,48.27252,267.77484,71.30318,38.698,9.96379,74.25141.76493,103.43379-26.96063,29.52065-28.047,58.047-57.15309,86.58506-86.21152,5.86139-5.96829,8.99251-6.73407,15.10827-.1861,20.70593,22.16924,41.99788,43.79883,63.382,65.32068,4.52979,4.559,4.82273,7.21563.108,11.88548-41.2252,40.83313-81.40034,82.76425-123.5228,122.64177-34.72155,32.87121-77.86367,44.56609-123.89359,32.81589-114.00164-29.10172-227.414-60.51246-341.061-91.00328C636.27184,1411.53976,635.19337,1411.13674,632.64011,1410.31Z"/><path class="cls-2" d="M247.64982,742.5225c.88694-33.75066,12.94931-66.60546,39.20371-93.29265,39.59564-40.24845,79.7909-79.90648,119.53027-120.01462,4.32125-4.36137,6.697-5.51134,11.36042-.24342,20.60037,23.27046,41.34165,46.43471,62.71549,68.98969,5.82164,6.14337,3.75953,8.9903-.95429,13.6492-25.40561,25.10974-50.54941,50.48413-75.84818,75.70233Q354.03247,736.78,372.27176,804.378q35.39508,131.51232,70.74747,263.036c3.63985,13.53043,3.68057,13.63713-10.26945,15.96691a195.57883,195.57883,0,0,0-81.18319,33.40859c-6.14131,4.31856-8.03839,4.45454-10.17862-3.627q-44.5743-168.31364-89.7791-336.46028C248.92463,766.65482,247.71726,756.37518,247.64982,742.5225Z"/><path class="cls-3" d="M1051.85745,1097.19583c-80.97269,28.12436-164.38455,36.30989-249.60824,31.77652-42.94873-2.28453-86.04732-4.12627-128.95812,1.0578-14.30768,1.7285-29.21838,3.09719-39.28109,15.85592q-1.10279-1.03127-2.20577-2.06253c.66834-19.37851,12.13218-31.73021,27.42985-41.23355,19.59959-12.176,41.79788-17.01683,64.07733-20.94884,79.64379-14.05606,159.39183-27.52363,239.0161-41.68759,29.39832-5.22961,58.42768-12.348,87.20669-20.38542,2.58346,2.14334,3.03286,5.22743,3.60537,8.24395,3.83291,20.195,2.08837,40.57672,1.97632,60.90034C1055.0985,1091.86817,1053.66484,1094.6437,1051.85745,1097.19583Z"/><path class="cls-4" d="M645.67343,1263.69c-1.76247-11.872-2.87588-24.442-10.60408-34.71786l-.00071-.00262c-19.09939-52.72-55.77275-87.39719-108.45588-105.63783-9.862-2.51839-19.58849-6.02714-29.60731-7.39618-69.66065-9.51851-127.62309,12.7914-170.11795,68.59032-38.90827,51.08965-46.78309,108.46825-24.50555,169.31586l-.00143.00119c19.11962,52.83141,55.719,87.80966,108.51419,106.24666,25.85031,9.787,52.26661,12.49888,79.8694,9.19339C589.73146,1457.43094,660.75448,1365.27926,645.67343,1263.69Z"/><path class="cls-4" d="M1451.59362,403.43035l.00024-.00072c-7.087-18.01191-15.07558-35.53353-27.13962-50.90186-20.93444-26.66835-46.43964-47.038-79.07515-57.64017-31.76392-13.83507-65.01255-15.00109-98.05315-8.06761C1137.46508,309.87345,1076.21,424.46071,1117.56218,527.976l.00071-.00047-.00024.00047c2.715,5.90528,5.10794,11.98454,8.19589,17.68775,22.14021,40.889,54.978,69.23414,99.21917,84.08313,17.71607,8.28372,36.85329,10.47817,55.87985,10.80782,84.38945,1.46186,158.89385-58.05122,176.84079-141.29775C1464.6573,466.97818,1464.21793,434.69563,1451.59362,403.43035Z"/><path class="cls-5" d="M1037.91376,928.96359C983.5509,951.41394,926.59988,962.541,868.36828,968.83506c-65.23057,7.05059-130.45769,3.58-195.72089,1.839-26.10525-.69645-52.23405-1.5626-78.26958,1.66388-23.34351,2.89286-44.77739,10.11715-61.83269,27.70621-6.26163-24.98129,7.80624-58.099,32.61487-77.58968,24.62158-19.34366,53.43885-28.82159,83.857-32.05208,46.54485-4.94293,93.34269-7.45079,139.95194-11.85261,74.16692-7.00455,147.6762-17.86876,218.8875-40.87036a43.85145,43.85145,0,0,1,4.49453-.96349c3.43046,1.697,4.58286,5.02979,5.74019,8.261a577.5741,577.5741,0,0,1,20.56945,73.00289C1039.43863,921.58241,1040.87989,925.497,1037.91376,928.96359Z"/><path class="cls-6" d="M962.25121,738.359c-46.88691,23.25628-96.78909,35.73123-148.60062,40.98924-59.52807,6.04114-118.86389,1.08592-178.19556-3.75a359.66738,359.66738,0,0,0-58.712-.39436c-21.44779,1.76755-41.50557,7.6605-54.90809,27.17625-7.32869-22.0146,4.21618-52.33488,25.48988-69.70588,21.97408-17.94295,48.84635-23.05682,75.30331-29.15884,51.71077-11.92658,104.41861-16.58675,157.14319-21.11671,42.007-3.60905,83.94421-7.783,124.46994-20.46488,9.2076,2.80277,12.808,11.48728,18.47369,17.90565a407.47662,407.47662,0,0,1,35.28716,46.19738C960.40257,729.69672,964.12294,733.13006,962.25121,738.359Z"/><path class="cls-7" d="M1037.91376,928.96359c-6.09944-31.41967-15.5916-61.89951-25.55957-92.248,24.754-10.88772,50.4535-19.57748,73.63612-34.06658,30.85013-19.2813,56.093-42.93546,64.76713-79.77584,8.10249-34.41262-3.28547-65.63051-17.61909-96.12231-1.42958-3.04126-3.07847-5.97945-5.02347-9.73342,11.22735,7.40212,28.64915,30.91429,39.88776,53.88548,29.41725,60.12784,27.19121,118.30966-12.70859,173.06885C1125.52769,884.82361,1084.34437,910.7137,1037.91376,928.96359Z"/><path class="cls-8" d="M962.25121,738.359c-16.04037-27.97673-37.47717-51.85746-58.00932-76.42525,23.57662-9.96508,46.713-20.46945,66.83938-36.95756,34.4315-28.2071,33.92509-66.39646-1.66184-93.70852-8.47483-6.50425-18.14936-10.7702-26.84211-16.749,43.95943,11.14432,83.67974,29.43692,108.66947,69.786,16.43586,26.53766,16.91109,54.25366.39056,81.35456C1030.45633,700.40546,998.89975,722.55031,962.25121,738.359Z"/><path class="cls-9" d="M1051.85745,1097.19583c-.14936-25.8946.90458-51.82523-2.32318-77.62769,23.66531-9.462,47.82437-17.77459,69.95051-30.76729,49.65063-29.15506,85.58786-68.77125,97.17008-127.00847a209.489,209.489,0,0,0,4.52332-37.76825c4.05646,8.15745,5.15516,16.98953,5.99027,25.93154C1237.89487,964.81979,1155.1112,1062.78694,1051.85745,1097.19583Z"/><path class="cls-6" d="M837.41264,603.93489c-30.87361,10.03762-62.33781,11.42218-94.157,5.99254-21.49772-3.66835-42.8269-8.39528-64.386-11.61288-20.89625-3.11872-41.91856-3.57619-62.71356,3.04,38.19146-31.961,82.54947-48.16761,131.494-53.061,6.48246-1.67961,12.09037,1.02733,17.43919,3.93092a533.3948,533.3948,0,0,1,65.84858,41.88882C834.16286,596.53267,838.39246,598.605,837.41264,603.93489Z"/><path class="cls-8" d="M837.41264,603.93489c-16.75283-16.4792-37.292-27.55724-57.05449-39.6877-10.34814-6.35184-20.39226-13.56977-32.71708-15.95132,13.09356-2.98689,26.45214-3.53627,39.76769-4.00067a74.29409,74.29409,0,0,0,23.32331-5.00114c4.82812-1.78174,9.82156-4.75184,9.74931-10.14714-.08147-6.08509-5.66776-8.52536-10.95932-10.14858a62.44681,62.44681,0,0,0-6.57664-1.17736c31.52382-10.33633,65.1661-.193,77.87244,19.54223,10.06009,15.62524,10.0722,30.2449-2.10808,44.16726A66.8966,66.8966,0,0,1,837.41264,603.93489Z"/><path class="cls-3" d="M1047.24882,1166.21364c-81.555,39.38856-166.61094,56.3517-256.87762,40.33628,89.96614-10.07759,175.72264-35.53468,259.15406-69.66907C1054.584,1147.10991,1051.01276,1156.66927,1047.24882,1166.21364Z"/><path class="cls-9" d="M1047.24882,1166.21364c-1.45681-9.94978,2.67067-19.466,2.27687-29.333,16.236-8.36213,32.63064-16.43525,48.64863-25.197,9.382-5.13192,18.28274-11.18375,27.18157-17.14768,8.94753-5.99665,16.787-13.36918,25.02668-20.27724C1127.449,1117.58075,1089.48693,1144.26344,1047.24882,1166.21364Z"/></g><rect id="Frame" class="cls-10" width="1749.11218" height="1749.11218"/></g></g></svg>